# xmcd
# 
# Track frame offsets:
#     150
#     14401
#     29828
#     42630
#     58019
#     68230
#     79974
#     93010
#     107370
#     121434
#     135393
#     144787
#     159853
#     173512
#     187936
#     205138
#     217242
#     230117
#     240270
#     252748
# 
# Disc length: 3530
# 
# Revision: 4
# Processed by: cddbd v1.5.2PL0 Copyright (c) Steve Scherf et al.
# Submitted via: BonkEnc v1.0.8
# 
DISCID=150dc814
DTITLE=Various Artist - That's Jazz - The Album - CD 2
DYEAR=2002
DGENRE=Jazz
TTITLE0=Count Basie - Jumpin' At The Woodside
TTITLE1=Glenn Miller - Chattanooga Choo Choo
TTITLE2=Duke Ellington - Take The Train
TTITLE3=Chris Babers Jazz Band - Down By The Riverside
TTITLE4=Dutch Swing College Band - Aux Champs Elysee
TTITLE5=Diana Washington - Ain't Misbehavin
TTITLE6=Glenn Miller - In the Mood
TTITLE7=Erroll Garner - Red Top
TTITLE8=Count Basie - Oh Lady Be Good
TTITLE9=Erroll Garner - Stompin'At The Savoy
TTITLE10=Tony Bennett and Count Basie - Chicago
TTITLE11=Monty Sunshine Band - Margie
TTITLE12=Ella Fitzgerald - Basin Street Blues
TTITLE13=Jimmie Lunceford - Uptown Blues
TTITLE14=Count Basie - April In Paris
TTITLE15=Arti Shaw - A Long Way To Tippeary
TTITLE16=Fred Astaire - Puttin' On The Ritz
TTITLE17=Benny Goodman - Let's Dance
TTITLE18=Gene Kelly - Singin'In The Rain
TTITLE19=Harry James - Trumpet Blues And Cantabile
EXTD=YEAR: 2002
EXTT0=
EXTT1=
EXTT2=
EXTT3=
EXTT4=
EXTT5=
EXTT6=
EXTT7=
EXTT8=
EXTT9=
EXTT10=
EXTT11=
EXTT12=
EXTT13=
EXTT14=
EXTT15=
EXTT16=
EXTT17=
EXTT18=
EXTT19=
PLAYORDER=
